#!OML:ASF H:\MichaelJackson\Top Level 1\Subject 1\Session 1\male.ASF
:FULLY-SPECIFIED
:DEGREES
519
root 6.8522 15.8431 28.9505 5.42432 16.0977 3.9002
lowerback 11.725 -0.412194 -6.33782
upperback 3.60938 -1.34766 -3.1202
thorax -2.71433 -0.644194 0.496983
lowerneck -7.88296 -6.03136 -1.65869
upperneck -1.3758 -7.98824 6.01331
head 1.24124 -3.88826 1.88719
rclavicle -3.77691e-015 1.90833e-014
rhumerus -45.9522 13.381 -102.848
rradius 81.7529
rwrist 8.13084
rhand -33.9798 -25.0048
rfingers 7.12502
rthumb -7.16008 -414.864
lclavicle -3.77691e-015 1.90833e-014
lhumerus -51.4378 -27.2312 105.027
lradius 82.236
lwrist 12.9751
lhand 2.50722 10.382
lfingers 7.12502
lthumb 27.9896 38.315
rfemur -57.9677 4.95041 25.4125
rtibia 57.5257
rfoot -6.43323 11.7459
rtoes -15.2585
lfemur -36.8723 16.0693 -26.2745
ltibia 54.5093
lfoot -23.1223 -7.92488
ltoes 12.0632
520
root 6.87965 15.8787 28.9891 5.09057 16.0117 4.03833
lowerback 11.8951 -0.575483 -6.49338
upperback 3.61883 -1.59951 -3.24283
thorax -2.78258 -0.766368 0.492289
lowerneck -8.03022 -5.916 -1.48096
upperneck -1.43629 -7.84493 5.9574
head 1.23028 -3.81664 1.84157
rclavicle -4.39314e-014 1.43125e-014
rhumerus -46.8968 13.9447 -103.064
rradius 82.7672
rwrist 8.75311
rhand -32.3055 -20.7666
rfingers 7.12502
rthumb -5.54374 -410.674
lclavicle -4.39314e-014 1.43125e-014
lhumerus -52.2595 -27.7383 105.23
lradius 82.9903
lwrist 13.957
lhand 3.43388 10.9049
lfingers 7.12502
lthumb 28.8751 38.6901
rfemur -58.9316 4.30873 26.6816
rtibia 57.6381
rfoot -6.51215 13.8688
rtoes -14.3697
lfemur -35.9594 16.5686 -26.3809
ltibia 53.8839
lfoot -23.0668 -8.3267
ltoes 12.2284
521
root 6.90502 15.9125 29.024 4.68929 15.9051 4.19866
lowerback 12.1058 -0.706944 -6.6905
upperback 3.63652 -1.81746 -3.34356
thorax -2.86366 -0.871397 0.530325
lowerneck -8.14194 -5.82247 -1.34121
upperneck -1.42667 -7.73065 5.86124
head 1.23691 -3.75955 1.7885
rclavicle 1.61016e-014 -7.95139e-016
rhumerus -47.7681 14.3214 -103.184
rradius 83.7779
rwrist 8.64083
rhand -30.5773 -17.3237
rfingers 7.12502
rthumb -3.87494 -407.268
lclavicle 1.61016e-014 -7.95139e-016
lhumerus -53.0246 -28.3361 105.513
lradius 83.7058
lwrist 15.4319
lhand 4.25842 11.6111
lfingers 7.12502
lthumb 29.6624 39.259
rfemur -59.9819 3.66885 27.9431
rtibia 58.655
rfoot -6.75711 15.5018
rtoes -13.7015
lfemur -34.9582 16.9205 -26.4554
ltibia 53.2541
lfoot -23.0057 -8.53336
ltoes 12.1877
522
root 6.9286 15.9446 29.0557 4.22581 15.7801 4.37511
lowerback 12.3472 -0.805108 -6.91194
upperback 3.66737 -1.99676 -3.4242
thorax -2.94736 -0.957246 0.598751
lowerneck -8.24555 -5.75508 -1.23819
upperneck -1.34755 -7.65094 5.73151
head 1.26608 -3.71919 1.72899
rclavicle -1.39149e-014 -2.14687e-014
rhumerus -48.5532 14.5139 -103.212
rradius 84.7627
rwrist 7.96853
rhand -29.0565 -14.8037
rfingers 7.12502
rthumb -2.40632 -404.77
lclavicle -1.39149e-014 -2.14687e-014
lhumerus -53.7104 -29.0082 105.857
lradius 84.3772
lwrist 17.2643
lhand 4.99634 12.5447
lfingers 7.12502
lthumb 30.3665 40.065
rfemur -61.1252 3.10406 29.1275
rtibia 60.5562
rfoot -7.09234 16.561
rtoes -13.5202
lfemur -33.8819 17.1186 -26.5011
ltibia 52.6282
lfoot -22.9402 -8.51422
ltoes 11.921
523
root 6.95093 15.9744 29.0847 3.71244 15.6408 4.56489
lowerback 12.601 -0.874711 -7.149
upperback 3.70895 -2.14134 -3.48663
thorax -3.02619 -1.02609 0.690807
lowerneck -8.33314 -5.71424 -1.16778
upperneck -1.2112 -7.60593 5.57732
head 1.31265 -3.69588 1.66561
rclavicle -7.95139e-015 -4.77083e-015
rhumerus -49.2505 14.5342 -103.155
rradius 85.7002
rwrist 6.90284
rhand -27.8698 -13.2422
rfingers 7.12502
rthumb -1.26019 -403.218
lclavicle -7.95139e-015 -4.77083e-015
lhumerus -54.3124 -29.72 106.243
lradius 84.9933
lwrist 19.2731
lhand 5.56242 13.5757
lfingers 7.12502
lthumb 30.9063 40.995
rfemur -62.3614 2.662 30.1751
rtibia 63.2666
rfoot -7.36182 17.0502
rtoes -13.8056
lfemur -32.7497 17.1879 -26.5322
ltibia 52.0143
lfoot -22.8793 -8.27717
ltoes 11.4256
524
root 6.97238 16.0016 29.1122 3.15625 15.5059 4.75727
lowerback 12.8571 -0.925612 -7.38357
upperback 3.76023 -2.26115 -3.53152
thorax -3.09597 -1.08306 0.796746
lowerneck -8.40578 -5.69433 -1.1162
upperneck -1.027 -7.58846 5.39616
head 1.37272 -3.68637 1.5956
rclavicle 4.27387e-014 2.46493e-014
rhumerus -49.8491 14.3909 -103.013
rradius 86.5679
rwrist 5.58544
rhand -27.1431 -12.5578
rfingers 7.12502
rthumb -0.558339 -402.537
lclavicle 4.27387e-014 2.46493e-014
lhumerus -54.819 -30.4518 106.651
lradius 85.5265
lwrist 21.2683
lhand 5.93518 14.6118
lfingers 7.12502
lthumb 31.2616 41.9631
rfemur -63.6741 2.3557 31.0542
rtibia 66.6706
rfoot -7.42174 17.048
rtoes -14.5423
lfemur -31.5769 17.1613 -26.5493
ltibia 51.4165
lfoot -22.8215 -7.87532
ltoes 10.7339
525
root 6.99318 16.0266 29.1392 2.5686 15.3957 4.95291
lowerback 13.1059 -0.968822 -7.61096
upperback 3.81746 -2.36937 -3.56199
thorax -3.15494 -1.13471 0.912323
lowerneck -8.4606 -5.69083 -1.07428
upperneck -0.801997 -7.59274 5.19216
head 1.44309 -3.68795 1.51911
rclavicle 1.92821e-014 4.53229e-014
rhumerus -50.3463 14.0902 -102.791
rradius 87.3486
rwrist 4.11188
rhand -26.9016 -12.6044
rfingers 7.12502
rthumb -0.325067 -402.584
lclavicle 1.92821e-014 4.53229e-014
lhumerus -55.249 -31.1641 107.072
lradius 85.964
lwrist 23.0522
lhand 6.14707 15.575
lfingers 7.12502
lthumb 31.4635 42.887
rfemur -65.0485 2.17305 31.7338
rtibia 70.6319
rfoot -7.11556 16.7304
rtoes -15.4294
lfemur -30.3769 17.0821 -26.5629
ltibia 50.8348
lfoot -22.7666 -7.39972
ltoes 9.93525
526
root 7.01338 16.0505 29.1665 1.94705 15.3485 5.14459
lowerback 13.3547 -1.01934 -7.81894
upperback 3.88192 -2.48456 -3.57717
thorax -3.20496 -1.19024 1.03455
lowerneck -8.44125 -5.68685 -1.05198
upperneck -0.598993 -7.5931 4.99693
head 1.49474 -3.68909 1.45127
rclavicle 2.00773e-014 -1.66979e-014
rhumerus -50.7339 13.6391 -102.486
rradius 88.0267
rwrist 2.59166
rhand -27.0725 -13.2471
rfingers 7.12502
rthumb -0.490125 -403.226
lclavicle 2.00773e-014 -1.66979e-014
lhumerus -55.5925 -31.8447 107.495
lradius 86.2737
lwrist 24.4797
lhand 6.22401 16.3581
lfingers 7.12502
lthumb 31.5367 43.6559
rfemur -66.4549 2.06927 32.2001
rtibia 75.0066
rfoot -6.36723 16.3296
rtoes -16.2814
lfemur -29.1458 16.9865 -26.5659
ltibia 50.265
lfoot -22.7135 -6.95385
ltoes 9.14964
527
root 7.03278 16.0737 29.1945 1.31591 15.3891 5.31774
lowerback 13.5871 -1.08925 -7.99294
upperback 3.94596 -2.61915 -3.57345
thorax -3.24476 -1.25577 1.16078
lowerneck -8.36579 -5.68206 -1.04349
upperneck -0.407551 -7.5902 4.81001
head 1.53385 -3.68958 1.39028
rclavicle 1.33186e-014 1.11319e-014
rhumerus -51.0109 13.0401 -102.091
rradius 88.6002
rwrist 1.10957
rhand -27.6004 -14.3394
rfingers 7.12502
rthumb -0.999947 -404.317
lclavicle 1.33186e-014 1.11319e-014
lhumerus -55.8449 -32.4888 107.915
lradius 86.4256
lwrist 25.4582
lhand 6.17547 16.8399
lfingers 7.12502
lthumb 31.4905 44.1467
rfemur -67.8958 2.00512 32.4558
rtibia 79.6537
rfoot -5.18696 16.0845
rtoes -17.1346
lfemur -27.9161 16.9033 -26.5502
ltibia 49.7011
lfoot -22.6557 -6.62701
ltoes 8.50294
528
root 7.05099 16.0972 29.2235 0.681318 15.5389 5.4547
lowerback 13.8033 -1.18734 -8.11933
upperback 4.00682 -2.78252 -3.54599
thorax -3.2771 -1.33589 1.29017
lowerneck -8.23015 -5.67355 -1.04606
upperneck -0.238043 -7.58029 4.63406
head 1.55617 -3.68763 1.33693
rclavicle -2.92213e-014 -3.02153e-014
rhumerus -51.1841 12.3076 -101.613
rradius 89.0699
rwrist -0.269618
rhand -28.3165 -15.8021
rfingers 7.12502
rthumb -1.6916 -405.775
lclavicle -2.92213e-014 -3.02153e-014
lhumerus -56.0026 -33.0796 108.323
lradius 86.4107
lwrist 25.9147
lhand 6.10051 17.0146
lfingers 7.12502
lthumb 31.4191 44.3353
rfemur -69.3496 1.93319 32.5088
rtibia 84.4414
rfoot -3.65059 16.2187
rtoes -17.9517
lfemur -26.6963 16.8531 -26.495
ltibia 49.1379
lfoot -22.5959 -6.49588
ltoes 8.07282
529
root 7.06777 16.1221 29.2532 0.0576149 15.8112 5.5414
lowerback 14.0018 -1.31951 -8.18573
upperback 4.05753 -2.98055 -3.49102
thorax -3.30854 -1.43316 1.42093
lowerneck -8.04222 -5.66031 -1.06025
upperneck -0.0897053 -7.56226 4.47167
head 1.56343 -3.68241 1.29195
rclavicle 1.17283e-014 -7.15625e-015
rhumerus -51.2642 11.4454 -101.053
rradius 89.4449
rwrist -1.46834
rhand -29.1494 -17.5602
rfingers 7.12502
rthumb -2.49602 -407.525
lclavicle 1.17283e-014 -7.15625e-015
lhumerus -56.0744 -33.6117 108.721
lradius 86.2282
lwrist 25.8674
lhand 6.0123 16.8638
lfingers 7.12502
lthumb 31.335 44.2009
rfemur -70.81 1.80722 32.3629
rtibia 89.252
rfoot -1.85741 16.9202
rtoes -18.7976
lfemur -25.5048 16.8376 -26.3883
ltibia 48.5703
lfoot -22.5349 -6.58887
ltoes 7.87247
